<svg width="645" height="50" viewBox="0 0 645 50" fill="none" xmlns="http://www.w3.org/2000/svg">
<g clip-path="url(#clip0_1_15)">
<rect width="645" height="50" rx="16" fill="white"/>
<rect x="0.5" y="0.5" width="645" height="50" rx="16" stroke="#DBDDE7"/>
<path d="M24.5146 39.2C32.7989 39.2 39.5146 32.6186 39.5146 24.5C39.5146 16.3814 32.7989 9.8 24.5146 9.8C16.2303 9.8 9.51459 16.3814 9.51459 24.5C9.51459 32.6186 16.2303 39.2 24.5146 39.2Z" fill="#0050E5"/>
<path d="M354.999 39.2C363.283 39.2 369.999 32.6186 369.999 24.5C369.999 16.3814 363.283 9.8 354.999 9.8C346.715 9.8 339.999 16.3814 339.999 24.5C339.999 32.6186 346.715 39.2 354.999 39.2Z" fill="#0050E5"/>
<path d="M90.999 39.2C99.2833 39.2 105.999 32.6186 105.999 24.5C105.999 16.3814 99.2833 9.8 90.999 9.8C82.7147 9.8 75.999 16.3814 75.999 24.5C75.999 32.6186 82.7147 39.2 90.999 39.2Z" fill="#0050E5"/>
<path d="M420.999 39.2C429.283 39.2 435.999 32.6186 435.999 24.5C435.999 16.3814 429.283 9.8 420.999 9.8C412.715 9.8 405.999 16.3814 405.999 24.5C405.999 32.6186 412.715 39.2 420.999 39.2Z" fill="#0050E5"/>
<path d="M156.999 39.2C165.283 39.2 171.999 32.6186 171.999 24.5C171.999 16.3814 165.283 9.8 156.999 9.8C148.715 9.8 141.999 16.3814 141.999 24.5C141.999 32.6186 148.715 39.2 156.999 39.2Z" fill="#0050E5"/>
<path d="M486.999 39.2C495.283 39.2 501.999 32.6186 501.999 24.5C501.999 16.3814 495.283 9.8 486.999 9.8C478.715 9.8 471.999 16.3814 471.999 24.5C471.999 32.6186 478.715 39.2 486.999 39.2Z" fill="#0050E5"/>
<path d="M222.999 39.2C231.283 39.2 237.999 32.6186 237.999 24.5C237.999 16.3814 231.283 9.8 222.999 9.8C214.715 9.8 207.999 16.3814 207.999 24.5C207.999 32.6186 214.715 39.2 222.999 39.2Z" fill="#0050E5"/>
<path d="M552.999 39.2C561.283 39.2 567.999 32.6186 567.999 24.5C567.999 16.3814 561.283 9.8 552.999 9.8C544.715 9.8 537.999 16.3814 537.999 24.5C537.999 32.6186 544.715 39.2 552.999 39.2Z" fill="#0050E5"/>
<path d="M288.999 39.2C297.283 39.2 303.999 32.6186 303.999 24.5C303.999 16.3814 297.283 9.8 288.999 9.8C280.715 9.8 273.999 16.3814 273.999 24.5C273.999 32.6186 280.715 39.2 288.999 39.2Z" fill="#0050E5"/>
<path d="M618.999 39.2C627.283 39.2 633.999 32.6186 633.999 24.5C633.999 16.3814 627.283 9.8 618.999 9.8C610.715 9.8 603.999 16.3814 603.999 24.5C603.999 32.6186 610.715 39.2 618.999 39.2Z" fill="#0050E5"/>
  <line x1="322.5" y1="5" x2="322.5" y2="45" stroke="gray" stroke-width="3"/>
</g>
<defs>
<clipPath id="clip0_1_15">
<rect width="652" height="50" fill="white"/>
</clipPath>
</defs>
</svg>
