<svg width="645" height="50" viewBox="0 0 645 50" fill="none" xmlns="http://www.w3.org/2000/svg">
<rect width="645" height="50" rx="16" fill="#DCDCDC"/>
<line x1="322.5" y1="5" x2="322.5" y2="45" stroke="gray" stroke-width="3"/>
<path d="M24.5156 40C32.7999 40 39.5156 33.2843 39.5156 25C39.5156 16.7157 32.7999 10 24.5156 10C16.2313 10 9.51559 16.7157 9.51559 25C9.51559 33.2843 16.2313 40 24.5156 40Z" fill="#0050E5"/>
<path d="M355 40C363.284 40 370 33.2843 370 25C370 16.7157 363.284 10 355 10C346.716 10 340 16.7157 340 25C340 33.2843 346.716 40 355 40Z" fill="#0050E5"/>
<path d="M91 40C99.2843 40 106 33.2843 106 25C106 16.7157 99.2843 10 91 10C82.7157 10 76 16.7157 76 25C76 33.2843 82.7157 40 91 40Z" fill="#0050E5"/>
<path d="M421 40C429.284 40 436 33.2843 436 25C436 16.7157 429.284 10 421 10C412.716 10 406 16.7157 406 25C406 33.2843 412.716 40 421 40Z" fill="#0050E5"/>
<path d="M157 40C165.284 40 172 33.2843 172 25C172 16.7157 165.284 10 157 10C148.716 10 142 16.7157 142 25C142 33.2843 148.716 40 157 40Z" fill="#0050E5"/>
<path d="M487 40C495.284 40 502 33.2843 502 25C502 16.7157 495.284 10 487 10C478.716 10 472 16.7157 472 25C472 33.2843 478.716 40 487 40Z" fill="#0050E5"/>
<path d="M223 40C231.284 40 238 33.2843 238 25C238 16.7157 231.284 10 223 10C214.716 10 208 16.7157 208 25C208 33.2843 214.716 40 223 40Z" fill="#0050E5"/>
<path d="M553 40C561.284 40 568 33.2843 568 25C568 16.7157 561.284 10 553 10C544.716 10 538 16.7157 538 25C538 33.2843 544.716 40 553 40Z" fill="#0050E5"/>
<path d="M289 40C297.284 40 304 33.2843 304 25C304 16.7157 297.284 10 289 10C280.716 10 274 16.7157 274 25C274 33.2843 280.716 40 289 40Z" fill="#0050E5"/>
<path d="M619 40C627.284 40 634 33.2843 634 25C634 16.7157 627.284 10 619 10C610.716 10 604 16.7157 604 25C604 33.2843 610.716 40 619 40Z" fill="#0050E5"/>
</svg>
