<svg xmlns="http://www.w3.org/2000/svg" viewBox="0 0 75 75" width="75" height="75">
  <path d="M39.389,13.769 L22.235,28.606 L6,28.606 L6,47.699 L21.989,47.699 L39.389,62.75 L39.389,13.769z"
        style="stroke:#111;stroke-width:5;stroke-linejoin:round;fill:#111;" />

  <path d="M48,27.6a19.5,19.5 0 0 1 0,21.4"
        style="fill:none;stroke:#111;stroke-width:5;stroke-linecap:round">
    <animate attributeName="opacity"
             values="0.3;1;0.3"
             dur="1.2s"
             repeatCount="indefinite"/>
  </path>

  <path d="M55.1,20.5a30,30 0 0 1 0,35.6"
        style="fill:none;stroke:#111;stroke-width:5;stroke-linecap:round">
    <animate attributeName="opacity"
             values="0.3;1;0.3"
             dur="1.2s"
             begin="0.2s"
             repeatCount="indefinite"/>
  </path>

  <path d="M61.6,14a38.8,38.8 0 0 1 0,48.6"
        style="fill:none;stroke:#111;stroke-width:5;stroke-linecap:round">
    <animate attributeName="opacity"
             values="0.3;1;0.3"
             dur="1.2s"
             begin="0.4s"
             repeatCount="indefinite"/>
  </path>

  <g opacity="0.6">
    <animateTransform attributeName="transform"
                      type="scale"
                      values="1;1.02;1"
                      dur="1.2s"
                      repeatCount="indefinite"
                      transform-origin="55 38"/>
    <path d="M48,27.6a19.5,19.5 0 0 1 0,21.4"
          style="fill:none;stroke:#111stroke-width:3;stroke-linecap:round"/>
    <path d="M55.1,20.5a30,30 0 0 1 0,35.6"
          style="fill:none;stroke:#111;stroke-width:3;stroke-linecap:round"/>
    <path d="M61.6,14a38.8,38.8 0 0 1 0,48.6"
          style="fill:none;stroke:#111;stroke-width:3;stroke-linecap:round"/>
  </g>
</svg>
